<svg id="svg" version="1.1" xmlns="http://www.w3.org/2000/svg" xmlns:xlink="http://www.w3.org/1999/xlink" width="400" height="400" viewBox="0, 0, 400,400"><g id="svgg"><path id="path0" d="M31.600 64.800 C 31.600 65.020,30.880 65.200,30.000 65.200 C 29.120 65.200,28.400 65.380,28.400 65.600 C 28.400 65.820,27.770 66.000,27.000 66.000 C 26.230 66.000,25.600 66.200,25.600 66.445 C 25.600 66.713,25.120 66.820,24.400 66.715 C 23.581 66.594,23.200 66.707,23.200 67.069 C 23.200 67.361,22.840 67.600,22.400 67.600 C 21.960 67.600,21.600 67.780,21.600 68.000 C 21.600 68.220,21.240 68.400,20.800 68.400 C 20.360 68.400,20.000 68.580,20.000 68.800 C 20.000 69.020,19.640 69.200,19.200 69.200 C 18.760 69.200,18.400 69.380,18.400 69.600 C 18.400 69.820,18.132 70.000,17.805 70.000 C 17.200 70.000,16.249 70.676,14.568 72.300 C 14.056 72.795,13.448 73.200,13.218 73.200 C 12.988 73.200,12.800 73.399,12.800 73.643 C 12.800 73.886,12.530 73.982,12.200 73.855 C 11.870 73.729,11.600 73.812,11.600 74.041 C 11.600 74.693,10.450 75.678,10.008 75.405 C 9.777 75.262,9.710 75.421,9.847 75.779 C 10.001 76.178,9.861 76.400,9.455 76.400 C 9.108 76.400,8.913 76.630,9.022 76.912 C 9.244 77.491,6.743 80.400,6.022 80.400 C 5.764 80.400,5.648 80.555,5.765 80.744 C 6.018 81.152,5.132 83.192,4.700 83.197 C 4.535 83.199,4.400 83.470,4.400 83.800 C 4.400 84.130,4.220 84.400,4.000 84.400 C 3.780 84.400,3.600 84.760,3.600 85.200 C 3.600 85.640,3.420 86.000,3.200 86.000 C 2.980 86.000,2.800 86.360,2.800 86.800 C 2.800 87.240,2.620 87.600,2.400 87.600 C 2.180 87.600,2.000 88.151,2.000 88.824 C 2.000 89.537,1.833 89.944,1.600 89.800 C 1.359 89.651,1.200 90.185,1.200 91.143 C 1.200 92.060,0.988 92.804,0.700 92.900 C 0.194 93.069,-0.213 303.766,0.285 307.948 C 0.427 309.144,0.603 309.523,0.840 309.148 C 1.069 308.788,1.190 309.183,1.194 310.300 C 1.197 311.235,1.380 312.000,1.600 312.000 C 1.820 312.000,2.000 312.439,2.000 312.976 C 2.000 313.513,2.180 314.064,2.400 314.200 C 2.620 314.336,2.800 314.797,2.800 315.224 C 2.800 315.651,2.980 316.000,3.200 316.000 C 3.420 316.000,3.600 316.360,3.600 316.800 C 3.600 317.240,3.780 317.600,4.000 317.600 C 4.220 317.600,4.400 317.960,4.400 318.400 C 4.400 318.840,4.580 319.200,4.800 319.200 C 5.020 319.200,5.200 319.470,5.200 319.800 C 5.200 320.130,5.380 320.400,5.600 320.400 C 5.820 320.400,6.000 320.630,6.000 320.912 C 6.000 321.193,6.360 321.683,6.800 322.000 C 7.240 322.317,7.600 322.792,7.600 323.055 C 7.600 323.318,7.735 323.593,7.900 323.667 C 8.065 323.740,8.768 324.462,9.462 325.271 C 10.157 326.080,10.799 326.668,10.890 326.577 C 10.981 326.485,11.741 327.039,12.578 327.805 C 13.415 328.572,14.308 329.200,14.562 329.200 C 14.816 329.200,15.283 329.560,15.600 330.000 C 15.917 330.440,16.597 330.800,17.112 330.800 C 17.634 330.800,17.938 330.977,17.800 331.200 C 17.664 331.420,17.816 331.600,18.139 331.600 C 18.683 331.600,21.951 333.140,22.400 333.609 C 22.510 333.723,23.230 333.875,24.000 333.946 C 24.770 334.016,25.460 334.237,25.533 334.437 C 25.607 334.637,26.382 334.800,27.257 334.800 C 28.132 334.800,28.750 334.957,28.632 335.149 C 28.513 335.340,29.622 335.523,31.095 335.555 C 32.568 335.587,33.939 335.779,34.141 335.981 C 34.364 336.204,34.872 336.109,35.434 335.741 C 36.367 335.130,38.000 335.312,38.000 336.027 C 38.000 336.255,51.839 336.400,73.575 336.400 L 109.151 336.400 109.397 334.700 C 109.578 333.451,109.432 106.594,109.227 69.300 L 109.200 64.400 70.400 64.400 C 44.800 64.400,31.600 64.536,31.600 64.800 M204.400 140.400 C 204.070 140.613,203.046 140.791,202.124 140.794 C 201.202 140.797,200.336 140.980,200.200 141.200 C 200.064 141.420,199.344 141.600,198.600 141.600 C 197.856 141.600,197.136 141.780,197.000 142.000 C 196.864 142.220,196.324 142.400,195.800 142.400 C 195.276 142.400,194.736 142.580,194.600 142.800 C 194.464 143.020,194.001 143.200,193.571 143.200 C 193.141 143.200,192.432 143.380,191.995 143.600 C 191.558 143.820,190.842 144.180,190.405 144.400 C 189.968 144.620,189.338 144.800,189.005 144.800 C 188.672 144.800,188.400 144.980,188.400 145.200 C 188.400 145.420,188.128 145.600,187.795 145.600 C 187.239 145.600,185.676 146.323,185.200 146.801 C 185.090 146.911,184.460 147.267,183.800 147.592 C 180.464 149.233,174.625 153.451,171.837 156.234 C 168.517 159.549,162.000 167.815,162.000 168.712 C 162.000 168.931,161.203 170.615,160.229 172.455 C 159.255 174.295,158.158 176.610,157.792 177.600 C 157.425 178.590,156.981 179.760,156.803 180.200 C 154.688 185.447,153.200 193.951,153.200 200.787 C 153.200 207.352,154.721 216.044,156.807 221.400 C 161.541 233.554,168.701 242.877,178.913 250.182 C 182.104 252.465,190.183 256.800,191.246 256.800 C 191.573 256.800,192.011 256.948,192.220 257.128 C 192.956 257.764,198.879 259.402,204.200 260.443 C 207.088 261.008,220.405 260.979,222.397 260.404 C 223.166 260.182,224.372 260.000,225.079 260.000 C 225.785 260.000,226.776 259.839,227.281 259.642 C 227.787 259.445,228.965 259.085,229.900 258.842 C 233.392 257.934,235.011 257.448,235.400 257.191 C 235.620 257.045,237.060 256.432,238.600 255.828 C 247.796 252.224,258.169 243.435,264.772 233.656 C 269.521 226.622,274.000 214.070,274.000 207.794 C 274.000 205.476,273.403 204.854,272.941 206.691 C 271.317 213.163,255.862 231.600,252.061 231.600 C 251.844 231.600,251.607 231.741,251.533 231.914 C 251.117 232.893,241.354 236.831,237.300 237.655 C 236.365 237.845,234.745 238.187,233.700 238.415 C 226.259 240.040,214.762 238.640,206.904 235.153 C 205.972 234.739,205.089 234.400,204.944 234.400 C 204.798 234.400,203.221 233.565,201.439 232.543 C 192.471 227.403,185.517 219.997,181.211 211.000 C 178.671 205.690,178.380 204.844,176.748 198.000 C 176.073 195.168,176.071 180.169,176.746 179.494 C 176.996 179.244,177.200 178.367,177.200 177.544 C 177.200 176.721,177.380 175.936,177.600 175.800 C 177.820 175.664,178.000 175.111,178.000 174.571 C 178.000 174.031,178.159 173.277,178.353 172.895 C 178.548 172.513,178.875 171.750,179.081 171.200 C 181.887 163.709,188.036 155.280,194.401 150.199 C 197.559 147.679,198.744 146.800,198.985 146.800 C 199.134 146.800,200.008 146.298,200.928 145.684 C 202.498 144.637,205.329 143.202,207.600 142.303 C 208.150 142.085,208.913 141.748,209.295 141.553 C 209.677 141.359,210.352 141.200,210.795 141.200 C 211.238 141.200,211.600 141.033,211.600 140.828 C 211.600 140.623,212.005 140.378,212.500 140.282 C 212.995 140.187,211.510 140.087,209.200 140.061 C 206.890 140.034,204.730 140.187,204.400 140.400 M242.544 157.414 C 242.673 159.166,242.892 161.868,243.030 163.417 C 243.338 166.871,243.515 166.691,237.039 169.493 C 233.898 170.852,232.578 171.589,233.276 171.593 C 233.868 171.597,234.464 171.780,234.600 172.000 C 234.736 172.220,235.456 172.400,236.200 172.400 C 236.944 172.400,237.664 172.580,237.800 172.800 C 237.936 173.020,238.656 173.200,239.400 173.200 C 240.144 173.200,240.864 173.380,241.000 173.600 C 241.136 173.820,241.766 174.000,242.401 174.000 C 244.170 174.000,244.797 175.243,244.818 178.789 C 244.827 180.445,245.062 182.659,245.339 183.710 L 245.843 185.619 246.505 184.310 C 250.233 176.940,251.578 175.144,252.799 175.907 C 253.234 176.178,254.121 176.400,254.771 176.400 C 255.421 176.400,256.064 176.580,256.200 176.800 C 256.336 177.020,257.056 177.200,257.800 177.200 C 258.544 177.200,259.264 177.380,259.400 177.600 C 259.536 177.820,260.273 178.000,261.038 178.000 C 262.741 178.000,262.576 177.552,259.782 174.600 C 255.663 170.248,255.177 168.775,257.205 166.800 C 257.318 166.690,257.856 165.700,258.400 164.600 C 258.944 163.500,259.482 162.510,259.595 162.400 C 261.335 160.706,261.128 159.021,259.295 159.953 C 258.913 160.148,258.150 160.489,257.600 160.713 C 255.925 161.393,253.677 162.364,252.153 163.068 C 250.389 163.882,250.021 163.693,247.657 160.761 C 245.496 158.080,244.899 157.349,243.454 155.609 L 242.308 154.229 242.544 157.414 " stroke="none" fill="#e5e6e6" fill-rule="evenodd"></path><path id="path1" d="M110.299 94.300 C 110.353 111.185,110.398 172.294,110.399 230.098 L 110.400 335.196 237.415 335.298 C 343.844 335.383,364.484 335.488,364.765 335.943 C 364.998 336.321,365.183 336.351,365.374 336.043 C 365.524 335.799,366.087 335.600,366.624 335.600 C 367.161 335.600,367.600 335.420,367.600 335.200 C 367.600 334.618,369.900 334.709,370.114 335.300 C 370.259 335.700,370.465 335.700,371.142 335.300 C 371.608 335.025,372.532 334.800,373.195 334.800 C 373.858 334.800,374.400 334.620,374.400 334.400 C 374.400 334.180,374.859 334.000,375.419 334.000 C 375.980 334.000,377.184 333.640,378.094 333.200 C 379.005 332.760,379.986 332.400,380.275 332.400 C 380.564 332.400,380.800 332.220,380.800 332.000 C 380.800 331.780,381.160 331.600,381.600 331.600 C 382.040 331.600,382.400 331.420,382.400 331.200 C 382.400 330.980,382.720 330.800,383.112 330.800 C 383.503 330.800,384.083 330.440,384.400 330.000 C 384.717 329.560,385.180 329.200,385.429 329.200 C 385.678 329.200,386.446 328.660,387.137 328.000 C 387.828 327.340,388.489 326.800,388.607 326.800 C 388.951 326.800,392.400 323.253,392.400 322.899 C 392.400 322.722,392.760 322.317,393.200 322.000 C 393.640 321.683,394.000 321.143,394.000 320.800 C 394.000 320.457,394.360 319.917,394.800 319.600 C 395.240 319.283,395.600 318.703,395.600 318.312 C 395.600 317.920,395.780 317.600,396.000 317.600 C 396.220 317.600,396.400 317.240,396.400 316.800 C 396.400 316.360,396.580 316.000,396.800 316.000 C 397.020 316.000,397.200 315.640,397.200 315.200 C 397.200 314.760,397.380 314.400,397.600 314.400 C 397.820 314.400,398.000 313.860,398.000 313.200 C 398.000 312.540,398.180 312.000,398.400 312.000 C 398.620 312.000,398.800 311.460,398.800 310.800 C 398.800 310.140,398.980 309.600,399.200 309.600 C 399.420 309.600,399.600 309.150,399.600 308.600 C 399.600 308.050,399.420 307.600,399.200 307.600 C 398.980 307.600,398.800 307.330,398.800 307.000 C 398.800 306.670,399.025 306.445,399.300 306.500 C 399.634 306.567,399.754 306.202,399.661 305.400 C 399.584 304.740,399.571 303.210,399.631 302.000 C 400.060 293.333,399.743 90.648,399.300 90.500 C 399.025 90.408,398.800 89.808,398.800 89.167 C 398.800 88.525,398.620 88.000,398.400 88.000 C 398.180 88.000,398.000 87.640,398.000 87.200 C 398.000 86.760,397.820 86.400,397.600 86.400 C 397.380 86.400,397.200 86.040,397.200 85.600 C 397.200 85.160,397.020 84.800,396.800 84.800 C 396.580 84.800,396.400 84.440,396.400 84.000 C 396.400 83.560,396.220 83.200,396.000 83.200 C 395.780 83.200,395.600 82.880,395.600 82.488 C 395.600 82.097,395.240 81.517,394.800 81.200 C 394.360 80.883,394.000 80.387,394.000 80.098 C 394.000 79.810,393.415 78.986,392.700 78.267 C 391.985 77.549,390.950 76.296,390.400 75.483 C 389.850 74.670,389.175 74.004,388.900 74.003 C 388.626 74.001,387.659 73.280,386.752 72.400 C 385.845 71.520,384.895 70.800,384.640 70.800 C 384.385 70.800,383.917 70.440,383.600 70.000 C 383.283 69.560,382.703 69.200,382.312 69.200 C 381.920 69.200,381.600 69.020,381.600 68.800 C 381.600 68.580,381.240 68.400,380.800 68.400 C 380.360 68.400,380.000 68.220,380.000 68.000 C 380.000 67.780,379.640 67.600,379.200 67.600 C 378.760 67.600,378.400 67.464,378.400 67.297 C 378.400 66.931,375.533 66.000,374.406 66.000 C 373.963 66.000,373.600 65.820,373.600 65.600 C 373.600 65.380,372.970 65.200,372.200 65.200 C 371.430 65.200,370.800 65.020,370.800 64.800 C 370.800 64.572,369.608 64.400,368.024 64.400 C 366.497 64.400,365.136 64.220,365.000 64.000 C 364.836 63.735,321.896 63.600,237.476 63.600 L 110.200 63.600 110.299 94.300 M214.371 139.812 C 214.865 140.295,214.837 140.405,214.171 140.622 C 213.747 140.760,213.040 141.011,212.600 141.181 C 212.160 141.350,211.080 141.710,210.200 141.980 C 199.188 145.357,187.417 155.552,182.003 166.400 C 180.320 169.772,179.485 171.787,178.854 174.000 C 176.977 180.579,176.722 182.655,176.934 189.600 C 177.149 196.613,177.458 199.563,178.041 200.180 C 178.238 200.389,178.400 200.916,178.400 201.352 C 178.400 202.442,179.166 204.828,180.598 208.200 C 186.281 221.580,198.122 232.332,211.200 235.988 C 212.190 236.265,213.360 236.640,213.800 236.821 C 217.438 238.320,229.064 238.547,235.800 237.251 C 251.660 234.200,265.707 222.162,272.408 205.880 C 273.996 202.021,275.569 202.215,275.002 206.200 C 274.188 211.914,273.588 215.273,273.214 216.200 C 273.036 216.640,272.667 217.810,272.394 218.800 C 272.120 219.790,271.664 221.140,271.381 221.800 C 271.098 222.460,270.545 223.810,270.154 224.800 C 267.079 232.576,258.547 243.605,251.313 249.153 C 249.422 250.603,241.294 255.600,240.825 255.600 C 240.659 255.600,240.000 255.850,239.361 256.156 C 238.271 256.679,236.015 257.664,234.200 258.411 C 233.760 258.592,232.860 258.852,232.200 258.989 C 231.540 259.126,230.550 259.333,230.000 259.449 C 229.450 259.565,228.640 259.816,228.200 260.005 C 227.760 260.195,226.680 260.457,225.800 260.586 C 224.920 260.716,222.850 261.030,221.200 261.285 C 217.399 261.871,210.401 261.866,206.000 261.274 C 199.941 260.460,199.198 260.321,198.974 259.958 C 198.852 259.761,198.144 259.600,197.400 259.600 C 196.656 259.600,195.936 259.420,195.800 259.200 C 195.664 258.980,195.113 258.800,194.576 258.800 C 194.039 258.800,193.600 258.620,193.600 258.400 C 193.600 258.180,193.238 258.000,192.795 258.000 C 192.352 258.000,191.587 257.792,191.095 257.538 C 189.338 256.629,188.806 256.400,188.457 256.400 C 187.623 256.400,180.309 252.054,176.989 249.586 C 170.938 245.087,163.061 236.079,160.387 230.600 C 160.065 229.940,159.711 229.310,159.601 229.200 C 159.123 228.724,158.400 227.161,158.400 226.605 C 158.400 226.272,158.220 226.000,158.000 226.000 C 157.780 226.000,157.600 225.728,157.600 225.395 C 157.600 224.807,157.433 224.382,156.462 222.505 C 156.208 222.013,156.000 221.259,156.000 220.829 C 156.000 220.399,155.820 219.936,155.600 219.800 C 155.380 219.664,155.200 219.124,155.200 218.600 C 155.200 218.076,155.039 217.548,154.842 217.426 C 154.645 217.305,154.387 216.529,154.268 215.703 C 154.149 214.876,153.847 213.300,153.597 212.200 C 152.525 207.485,152.508 195.213,153.564 189.600 C 153.792 188.390,154.093 186.723,154.233 185.896 C 154.374 185.069,154.649 184.294,154.844 184.173 C 155.040 184.052,155.200 183.511,155.200 182.971 C 155.200 182.431,155.359 181.677,155.553 181.295 C 155.894 180.625,156.413 179.392,157.151 177.500 C 157.862 175.677,160.182 170.969,160.868 169.955 C 161.258 169.380,161.467 168.801,161.334 168.667 C 160.543 167.876,169.866 156.486,174.063 153.118 C 178.522 149.539,185.428 145.484,191.000 143.172 C 198.691 139.981,212.514 137.994,214.371 139.812 M246.467 158.000 C 250.487 162.884,250.540 162.914,253.100 161.777 C 254.833 161.008,257.191 160.002,258.300 159.559 C 258.795 159.362,259.605 159.036,260.100 158.836 C 262.903 157.704,262.956 157.875,260.944 161.545 C 260.144 163.005,258.807 165.455,257.973 166.990 L 256.458 169.779 258.129 171.602 C 265.713 179.874,265.703 179.985,257.554 177.940 C 251.326 176.377,251.878 176.117,248.581 182.163 C 245.199 188.363,244.420 188.595,244.405 183.403 C 244.389 177.300,243.263 174.400,240.910 174.400 C 240.551 174.400,239.704 174.232,239.028 174.027 C 238.353 173.822,237.035 173.462,236.100 173.227 C 229.614 171.598,229.505 171.917,237.800 168.260 L 241.800 166.496 241.886 160.148 C 241.933 156.657,241.978 153.650,241.986 153.467 C 242.016 152.754,242.815 153.562,246.467 158.000 " stroke="none" fill="#085a2b" fill-rule="evenodd"></path><path id="path2" d="M109.886 199.258 C 109.940 273.871,110.077 335.011,110.192 335.126 C 110.509 335.442,110.383 65.103,110.066 64.300 C 109.914 63.915,109.833 124.646,109.886 199.258 M209.400 139.193 L 207.000 139.466 210.200 139.539 C 212.960 139.602,216.242 140.375,213.833 140.394 C 213.412 140.397,213.179 140.512,213.316 140.649 C 213.453 140.787,213.875 140.780,214.254 140.635 C 216.396 139.813,212.953 138.790,209.400 139.193 M201.400 140.089 C 200.520 140.302,199.374 140.558,198.853 140.658 C 198.332 140.757,197.988 140.921,198.088 141.021 C 198.188 141.122,199.245 140.997,200.435 140.745 C 201.626 140.493,203.590 140.159,204.800 140.002 L 207.000 139.718 205.000 139.709 C 203.900 139.705,202.280 139.876,201.400 140.089 M211.400 141.200 C 210.629 141.531,210.631 141.545,211.476 141.572 C 211.958 141.587,212.464 141.420,212.600 141.200 C 212.892 140.727,212.501 140.727,211.400 141.200 M194.478 141.895 C 193.531 142.222,192.827 142.560,192.913 142.647 C 193.000 142.733,194.134 142.454,195.435 142.027 C 196.736 141.600,197.440 141.262,197.000 141.276 C 196.560 141.290,195.425 141.568,194.478 141.895 M204.100 144.186 C 202.945 144.723,202.000 145.253,202.000 145.363 C 202.000 145.582,205.892 143.841,206.288 143.445 C 206.706 143.027,206.274 143.173,204.100 144.186 M198.796 147.363 C 197.368 148.332,195.570 149.693,194.800 150.387 C 194.030 151.081,194.572 150.779,196.004 149.716 C 197.436 148.654,199.281 147.368,200.104 146.860 C 201.384 146.069,201.901 145.600,201.496 145.600 C 201.438 145.600,200.223 146.393,198.796 147.363 M182.000 147.633 L 181.000 148.448 182.300 147.814 C 183.015 147.465,183.600 147.094,183.600 146.990 C 183.600 146.592,182.963 146.848,182.000 147.633 M173.562 153.510 C 169.828 156.663,161.200 167.149,161.200 168.534 C 161.200 168.730,161.849 167.946,162.643 166.792 C 165.628 162.452,169.928 157.246,172.177 155.246 C 176.690 151.235,177.585 150.113,173.562 153.510 M190.200 154.400 C 188.672 155.940,187.597 157.178,187.811 157.152 C 188.198 157.104,193.499 151.600,193.158 151.600 C 193.059 151.600,191.728 152.860,190.200 154.400 M241.813 153.579 C 241.568 153.975,241.825 154.153,242.495 154.049 C 242.657 154.024,244.446 156.073,246.470 158.602 C 250.191 163.250,250.519 163.518,251.600 162.776 C 252.076 162.449,251.997 162.389,251.220 162.482 C 250.400 162.581,249.620 161.845,246.460 158.000 C 242.471 153.144,242.226 152.911,241.813 153.579 M242.080 161.280 C 242.011 165.643,241.901 166.418,241.300 166.768 C 240.915 166.992,240.797 167.181,241.038 167.188 C 242.301 167.223,242.602 165.838,242.380 161.000 L 242.161 156.200 242.080 161.280 M186.744 158.300 C 185.593 159.689,185.106 160.400,185.304 160.400 C 185.414 160.400,185.986 159.770,186.573 159.000 C 187.663 157.571,187.795 157.032,186.744 158.300 M261.400 158.324 C 260.960 158.409,260.451 158.618,260.270 158.789 C 260.088 158.960,260.430 159.007,261.030 158.892 L 262.120 158.684 260.402 161.842 C 259.457 163.579,258.877 164.820,259.113 164.600 C 259.762 163.996,262.479 158.823,262.330 158.475 C 262.258 158.308,261.840 158.240,261.400 158.324 M253.700 161.434 C 252.985 161.746,252.400 162.094,252.400 162.207 C 252.400 162.415,255.206 161.327,255.546 160.987 C 255.886 160.647,255.020 160.857,253.700 161.434 M182.320 164.900 C 181.323 166.790,180.495 168.541,179.957 169.900 C 179.761 170.395,179.431 171.205,179.225 171.700 C 179.019 172.195,178.748 173.050,178.623 173.600 L 178.396 174.600 178.846 173.600 C 179.093 173.050,179.454 172.195,179.648 171.700 C 179.842 171.205,180.160 170.395,180.356 169.900 C 180.551 169.405,181.371 167.695,182.178 166.100 C 182.984 164.505,183.547 163.200,183.430 163.200 C 183.312 163.200,182.813 163.965,182.320 164.900 M257.465 167.152 C 256.879 168.228,256.403 169.264,256.407 169.454 C 256.411 169.644,256.952 168.825,257.608 167.634 C 258.265 166.443,258.741 165.407,258.666 165.332 C 258.591 165.257,258.050 166.076,257.465 167.152 M238.400 168.000 C 237.630 168.422,237.113 168.774,237.251 168.783 C 237.665 168.811,240.400 167.605,240.400 167.395 C 240.400 167.046,239.825 167.220,238.400 168.000 M233.700 170.043 C 232.325 170.696,231.200 171.367,231.200 171.535 C 231.200 171.930,233.632 172.808,234.628 172.772 C 235.053 172.757,234.506 172.470,233.413 172.135 L 231.426 171.525 233.413 170.586 C 234.506 170.069,235.614 169.636,235.876 169.623 C 236.138 169.610,236.464 169.420,236.600 169.200 C 236.978 168.589,236.423 168.750,233.700 170.043 M160.614 170.235 C 160.241 170.804,160.027 171.361,160.139 171.472 C 160.250 171.583,160.629 171.118,160.981 170.437 C 161.759 168.933,161.544 168.815,160.614 170.235 M257.418 171.181 C 257.869 171.741,259.466 173.602,260.969 175.316 C 264.370 179.196,264.320 179.236,258.001 177.646 C 252.690 176.309,251.194 176.201,250.888 177.131 C 250.744 177.567,250.859 177.570,251.535 177.148 C 252.231 176.713,253.139 176.831,257.478 177.921 C 265.023 179.814,265.180 179.736,261.800 175.767 C 259.664 173.259,256.048 169.474,257.418 171.181 M236.000 173.200 C 236.330 173.413,237.050 173.573,237.600 173.554 L 238.600 173.520 237.600 173.200 C 236.058 172.706,235.236 172.706,236.000 173.200 M239.200 174.000 C 239.530 174.213,240.250 174.373,240.800 174.354 L 241.800 174.320 240.800 174.000 C 239.258 173.506,238.436 173.506,239.200 174.000 M242.700 174.888 C 243.325 175.190,243.614 175.700,243.647 176.561 C 243.673 177.243,243.847 178.340,244.033 179.000 C 244.275 179.857,244.315 179.522,244.174 177.826 C 243.963 175.296,243.500 174.383,242.451 174.427 C 241.985 174.446,242.055 174.577,242.700 174.888 M177.883 175.800 C 177.142 179.458,176.842 181.375,176.986 181.519 C 177.075 181.609,177.258 180.988,177.392 180.141 C 177.526 179.293,177.829 177.946,178.067 177.146 C 178.304 176.347,178.414 175.447,178.312 175.146 C 178.210 174.846,178.017 175.140,177.883 175.800 M249.428 179.861 C 248.856 180.884,248.469 181.802,248.567 181.901 C 248.666 181.999,249.211 181.162,249.780 180.040 C 251.073 177.488,250.825 177.362,249.428 179.861 M155.467 181.467 C 155.320 181.613,155.215 182.198,155.234 182.767 C 155.268 183.781,155.275 183.779,155.621 182.620 C 155.985 181.403,155.931 181.002,155.467 181.467 M244.465 183.400 C 244.344 187.840,245.224 188.276,247.168 184.739 C 247.912 183.385,248.348 182.385,248.135 182.517 C 247.923 182.648,247.327 183.575,246.812 184.578 C 245.442 187.240,245.202 187.019,244.666 182.600 C 244.580 181.897,244.497 182.229,244.465 183.400 M176.557 188.800 C 176.557 191.770,176.620 192.985,176.697 191.500 C 176.774 190.015,176.774 187.585,176.697 186.100 C 176.620 184.615,176.557 185.830,176.557 188.800 M154.667 184.267 C 154.520 184.413,154.415 184.998,154.434 185.567 C 154.468 186.581,154.475 186.579,154.821 185.420 C 155.185 184.203,155.131 183.802,154.667 184.267 M153.849 187.415 C 153.712 187.773,153.621 188.726,153.647 189.533 C 153.690 190.883,153.720 190.842,154.026 189.013 C 154.368 186.970,154.290 186.267,153.849 187.415 M153.049 191.815 C 152.912 192.173,152.828 193.756,152.862 195.333 L 152.924 198.200 153.198 194.800 C 153.485 191.236,153.461 190.744,153.049 191.815 M176.875 196.200 C 176.886 196.640,177.032 197.540,177.200 198.200 L 177.505 199.400 177.525 198.200 C 177.535 197.540,177.389 196.640,177.200 196.200 L 176.856 195.400 176.875 196.200 M177.626 200.476 C 177.641 200.764,178.004 201.990,178.433 203.200 C 178.863 204.410,179.108 204.860,178.978 204.200 C 178.849 203.540,178.646 202.413,178.527 201.696 C 178.318 200.431,177.573 199.423,177.626 200.476 M273.600 202.866 C 273.600 202.971,272.894 204.709,272.031 206.728 C 271.168 208.748,270.547 210.400,270.653 210.400 C 270.819 210.400,271.491 208.966,273.304 204.743 C 274.109 202.867,274.874 203.793,274.633 206.351 C 274.486 207.903,274.529 208.290,274.770 207.600 C 275.393 205.822,275.247 204.166,274.400 203.400 C 273.960 203.002,273.600 202.762,273.600 202.866 M152.828 206.233 C 152.844 207.975,153.006 209.760,153.190 210.200 C 153.381 210.659,153.431 209.379,153.307 207.200 C 153.039 202.501,152.791 201.999,152.828 206.233 M179.200 205.798 C 179.200 206.167,180.690 209.446,182.292 212.600 C 183.889 215.746,185.340 217.937,187.192 220.000 C 188.163 221.081,188.087 220.899,186.859 219.200 C 184.874 216.455,181.934 211.454,181.215 209.600 C 180.916 208.830,180.521 208.029,180.336 207.820 C 180.151 207.611,180.000 207.127,180.000 206.744 C 180.000 206.361,179.820 205.936,179.600 205.800 C 179.380 205.664,179.200 205.663,179.200 205.798 M274.049 210.600 C 274.016 211.040,273.896 211.850,273.783 212.400 L 273.577 213.400 274.006 212.419 C 274.242 211.879,274.361 211.069,274.272 210.619 C 274.113 209.821,274.107 209.821,274.049 210.600 M269.209 212.504 C 268.696 213.437,267.631 215.092,266.844 216.182 C 266.056 217.272,265.632 218.028,265.901 217.861 C 266.810 217.300,270.628 211.295,270.291 210.957 C 270.209 210.876,269.722 211.572,269.209 212.504 M153.606 212.233 C 153.609 212.875,153.796 213.670,154.021 214.000 C 154.314 214.430,154.354 214.146,154.162 213.000 C 153.830 211.016,153.598 210.696,153.606 212.233 M273.246 214.667 C 273.221 214.924,273.084 215.464,272.941 215.867 C 272.740 216.436,272.794 216.497,273.179 216.142 C 273.452 215.891,273.589 215.351,273.484 214.942 C 273.379 214.534,273.272 214.410,273.246 214.667 M154.400 216.110 C 154.400 216.683,154.587 217.268,154.816 217.410 C 155.089 217.579,155.138 217.277,154.960 216.534 C 154.592 215.001,154.400 214.856,154.400 216.110 M155.228 218.676 C 155.213 219.158,155.380 219.664,155.600 219.800 C 156.073 220.092,156.073 219.701,155.600 218.600 C 155.269 217.829,155.255 217.831,155.228 218.676 M260.000 223.980 C 257.030 227.025,255.050 229.188,255.600 228.786 C 256.593 228.061,263.553 221.022,264.979 219.300 C 266.617 217.322,265.148 218.702,260.000 223.980 M156.028 221.076 C 156.013 221.558,156.180 222.064,156.400 222.200 C 156.873 222.492,156.873 222.101,156.400 221.000 C 156.069 220.229,156.055 220.231,156.028 221.076 M190.590 223.990 C 191.890 225.304,193.027 226.307,193.115 226.219 C 193.317 226.017,188.924 221.600,188.521 221.600 C 188.358 221.600,189.289 222.675,190.590 223.990 M158.566 227.300 C 158.695 227.575,158.911 228.115,159.046 228.500 C 159.182 228.885,159.457 229.200,159.657 229.200 C 159.857 229.200,159.741 228.660,159.400 228.000 C 158.811 226.862,158.073 226.242,158.566 227.300 M195.200 227.980 C 199.721 231.819,212.806 238.128,213.925 237.008 C 214.029 236.904,213.864 236.746,213.557 236.657 C 213.251 236.567,212.190 236.267,211.200 235.990 C 207.179 234.862,200.653 231.671,197.400 229.243 C 195.078 227.509,193.744 226.743,195.200 227.980 M265.006 233.700 C 263.954 235.295,262.476 237.365,261.720 238.300 C 260.965 239.235,260.493 240.000,260.673 240.000 C 260.975 239.999,264.553 235.113,266.457 232.100 C 268.075 229.540,266.879 230.858,265.006 233.700 M160.800 231.352 C 160.800 234.413,176.069 250.120,181.600 252.748 L 182.600 253.223 181.602 252.512 C 172.634 246.118,168.102 241.704,163.581 234.959 C 161.232 231.455,160.800 230.894,160.800 231.352 M247.600 233.216 C 246.390 233.867,245.620 234.400,245.888 234.400 C 246.408 234.400,249.146 232.967,249.780 232.362 C 250.391 231.780,249.939 231.957,247.600 233.216 M243.800 234.800 C 243.029 235.131,243.031 235.145,243.876 235.172 C 244.358 235.187,244.864 235.020,245.000 234.800 C 245.292 234.327,244.901 234.327,243.800 234.800 M241.400 235.814 C 240.395 236.298,240.363 236.353,241.200 236.151 C 241.750 236.019,242.371 235.750,242.580 235.555 C 243.098 235.071,242.814 235.133,241.400 235.814 M238.000 236.800 C 237.205 237.314,238.204 237.314,239.400 236.800 L 240.200 236.456 239.400 236.434 C 238.960 236.422,238.330 236.587,238.000 236.800 M214.433 237.344 C 214.525 237.424,215.410 237.606,216.400 237.750 C 217.658 237.933,218.019 237.891,217.600 237.612 C 217.060 237.253,214.032 236.997,214.433 237.344 M234.000 237.612 C 233.581 237.891,233.942 237.933,235.200 237.750 C 237.441 237.425,237.760 237.198,235.967 237.206 C 235.215 237.209,234.330 237.392,234.000 237.612 M221.000 238.444 C 224.273 238.811,229.856 238.818,231.800 238.457 C 232.746 238.281,230.374 238.162,226.000 238.167 C 221.310 238.172,219.479 238.273,221.000 238.444 M256.788 243.900 L 254.200 246.600 256.900 244.012 C 258.385 242.588,259.600 241.373,259.600 241.312 C 259.600 241.017,259.193 241.392,256.788 243.900 M251.800 248.220 C 250.920 248.985,249.345 250.167,248.300 250.847 C 246.441 252.057,245.703 252.801,247.109 252.049 C 248.019 251.561,252.836 248.020,253.529 247.328 C 254.642 246.216,253.324 246.896,251.800 248.220 M244.400 253.233 L 243.400 254.048 244.700 253.414 C 245.415 253.065,246.000 252.694,246.000 252.590 C 246.000 252.192,245.363 252.448,244.400 253.233 M182.800 253.393 C 182.800 253.500,183.700 254.043,184.800 254.600 C 187.315 255.875,187.421 255.616,184.950 254.234 C 183.027 253.160,182.800 253.071,182.800 253.393 M233.000 258.400 C 232.229 258.731,232.231 258.745,233.076 258.772 C 233.558 258.787,234.064 258.620,234.200 258.400 C 234.492 257.927,234.101 257.927,233.000 258.400 M195.790 259.184 C 195.932 259.413,196.517 259.600,197.090 259.600 C 198.344 259.600,198.199 259.408,196.666 259.040 C 195.923 258.862,195.621 258.911,195.790 259.184 M229.800 259.200 L 229.000 259.544 229.800 259.566 C 230.240 259.578,230.870 259.413,231.200 259.200 C 231.995 258.686,230.996 258.686,229.800 259.200 M198.990 259.984 C 199.132 260.213,199.717 260.400,200.290 260.400 C 201.544 260.400,201.399 260.208,199.866 259.840 C 199.123 259.662,198.821 259.711,198.990 259.984 M226.800 260.000 L 225.800 260.320 226.876 260.360 C 227.468 260.382,228.064 260.220,228.200 260.000 C 228.481 259.545,228.220 259.545,226.800 260.000 M202.408 260.813 C 202.949 261.156,207.151 261.389,206.767 261.055 C 206.675 260.976,205.523 260.804,204.208 260.675 C 202.654 260.521,202.023 260.570,202.408 260.813 M221.800 260.800 L 220.200 261.086 222.000 261.137 C 222.990 261.165,224.070 261.013,224.400 260.800 C 225.113 260.339,224.372 260.339,221.800 260.800 M208.877 261.660 C 210.179 262.027,217.598 261.984,218.800 261.603 C 219.375 261.421,217.280 261.310,213.877 261.343 C 210.620 261.374,208.370 261.517,208.877 261.660 " stroke="none" fill="#629d80" fill-rule="evenodd"></path><path id="path3" d="M34.800 64.011 C 34.800 64.260,48.154 64.400,71.947 64.400 L 109.094 64.400 109.289 83.700 C 109.397 94.315,109.466 155.502,109.442 219.671 C 109.419 283.840,109.531 336.107,109.692 335.821 C 109.914 335.425,109.870 64.184,109.648 63.695 C 109.496 63.360,34.800 63.676,34.800 64.011 M29.400 64.800 C 29.256 65.033,29.663 65.200,30.376 65.200 C 31.049 65.200,31.600 65.020,31.600 64.800 C 31.600 64.580,31.161 64.400,30.624 64.400 C 30.087 64.400,29.536 64.580,29.400 64.800 M26.200 65.600 C 26.056 65.833,26.463 66.000,27.176 66.000 C 27.849 66.000,28.400 65.820,28.400 65.600 C 28.400 65.380,27.961 65.200,27.424 65.200 C 26.887 65.200,26.336 65.380,26.200 65.600 M24.000 66.400 C 24.000 66.620,24.360 66.800,24.800 66.800 C 25.240 66.800,25.600 66.620,25.600 66.400 C 25.600 66.180,25.240 66.000,24.800 66.000 C 24.360 66.000,24.000 66.180,24.000 66.400 M21.600 67.200 C 21.600 67.420,21.240 67.600,20.800 67.600 C 20.360 67.600,20.000 67.780,20.000 68.000 C 20.000 68.220,19.640 68.400,19.200 68.400 C 18.760 68.400,18.400 68.580,18.400 68.800 C 18.400 69.020,18.164 69.200,17.875 69.200 C 17.587 69.200,16.964 69.560,16.492 70.000 C 16.020 70.440,15.446 70.800,15.217 70.800 C 14.988 70.800,14.800 70.980,14.800 71.200 C 14.800 71.420,14.612 71.600,14.382 71.600 C 13.748 71.600,11.873 73.609,12.212 73.924 C 12.376 74.076,12.590 73.975,12.688 73.700 C 12.786 73.425,13.040 73.200,13.252 73.200 C 13.463 73.200,14.056 72.795,14.568 72.300 C 16.249 70.676,17.200 70.000,17.805 70.000 C 18.132 70.000,18.400 69.820,18.400 69.600 C 18.400 69.380,18.760 69.200,19.200 69.200 C 19.640 69.200,20.000 69.020,20.000 68.800 C 20.000 68.580,20.360 68.400,20.800 68.400 C 21.240 68.400,21.600 68.220,21.600 68.000 C 21.600 67.780,21.960 67.600,22.400 67.600 C 22.840 67.600,23.200 67.420,23.200 67.200 C 23.200 66.980,22.840 66.800,22.400 66.800 C 21.960 66.800,21.600 66.980,21.600 67.200 M10.043 75.037 C 9.547 75.607,9.233 76.167,9.346 76.279 C 9.555 76.488,11.600 74.618,11.600 74.218 C 11.600 73.698,10.876 74.078,10.043 75.037 M7.300 78.216 C 6.099 79.474,5.652 80.400,6.246 80.400 C 6.595 80.400,9.200 77.510,9.200 77.122 C 9.200 76.511,8.596 76.859,7.300 78.216 M4.736 82.000 C 4.444 82.660,4.069 83.200,3.902 83.200 C 3.736 83.200,3.600 83.470,3.600 83.800 C 3.600 84.130,3.780 84.400,4.000 84.400 C 4.220 84.400,4.400 84.130,4.400 83.800 C 4.400 83.470,4.559 83.200,4.753 83.200 C 4.948 83.200,5.218 82.885,5.354 82.500 C 5.489 82.115,5.705 81.575,5.834 81.300 C 5.962 81.025,5.887 80.800,5.667 80.800 C 5.447 80.800,5.028 81.340,4.736 82.000 M2.800 85.400 C 2.800 85.730,2.980 86.000,3.200 86.000 C 3.420 86.000,3.600 85.730,3.600 85.400 C 3.600 85.070,3.420 84.800,3.200 84.800 C 2.980 84.800,2.800 85.070,2.800 85.400 M2.000 87.000 C 2.000 87.330,2.180 87.600,2.400 87.600 C 2.620 87.600,2.800 87.330,2.800 87.000 C 2.800 86.670,2.620 86.400,2.400 86.400 C 2.180 86.400,2.000 86.670,2.000 87.000 M1.334 88.627 C 1.202 88.972,1.298 89.458,1.547 89.707 C 1.884 90.044,2.000 89.884,2.000 89.080 C 2.000 87.877,1.701 87.673,1.334 88.627 M0.667 90.667 C 0.248 91.085,0.355 92.800,0.800 92.800 C 1.020 92.800,1.200 92.260,1.200 91.600 C 1.200 90.357,1.119 90.215,0.667 90.667 M0.114 95.000 C 0.117 96.100,0.195 96.503,0.287 95.895 C 0.379 95.286,0.377 94.386,0.282 93.895 C 0.187 93.403,0.111 93.900,0.114 95.000 M210.000 140.000 C 211.870 140.138,212.995 140.284,212.500 140.325 C 212.005 140.366,211.600 140.563,211.600 140.763 C 211.600 140.966,212.219 140.935,213.010 140.692 C 215.170 140.029,213.900 139.602,210.000 139.681 L 206.600 139.749 210.000 140.000 M202.200 140.400 C 201.513 140.695,201.570 140.747,202.600 140.766 C 203.260 140.778,204.070 140.613,204.400 140.400 C 205.182 139.894,203.376 139.894,202.200 140.400 M198.400 141.200 C 197.445 141.506,197.457 141.522,198.676 141.560 C 199.378 141.582,200.064 141.420,200.200 141.200 C 200.484 140.740,199.836 140.740,198.400 141.200 M195.600 142.000 C 195.112 142.315,195.164 142.389,195.876 142.394 C 196.358 142.397,196.864 142.220,197.000 142.000 C 197.315 141.491,196.388 141.491,195.600 142.000 M190.186 143.930 C 181.875 147.391,174.060 152.706,169.502 157.997 C 165.716 162.390,162.007 167.570,161.430 169.266 C 160.923 170.760,160.921 170.893,161.421 170.224 C 161.739 169.796,162.000 169.192,162.000 168.881 C 162.000 167.841,168.218 159.848,171.837 156.234 C 174.625 153.451,180.464 149.233,183.800 147.592 C 184.460 147.267,185.090 146.911,185.200 146.801 C 185.676 146.323,187.239 145.600,187.795 145.600 C 188.128 145.600,188.400 145.420,188.400 145.200 C 188.400 144.980,188.672 144.800,189.005 144.800 C 189.338 144.800,189.968 144.620,190.405 144.400 C 190.842 144.180,191.558 143.820,191.995 143.600 C 192.432 143.380,193.141 143.200,193.571 143.200 C 194.001 143.200,194.464 143.020,194.600 142.800 C 195.036 142.094,193.886 142.389,190.186 143.930 M201.600 145.236 C 200.936 145.779,200.869 145.915,201.400 145.640 C 202.705 144.966,203.428 144.412,203.000 144.415 C 202.780 144.417,202.150 144.786,201.600 145.236 M196.916 148.123 C 195.990 148.825,195.225 149.534,195.216 149.697 C 195.204 149.926,198.250 147.812,199.167 146.956 C 199.934 146.239,198.246 147.115,196.916 148.123 M191.289 153.100 C 188.171 156.161,188.167 156.167,190.965 153.625 C 192.524 152.208,194.064 150.813,194.386 150.525 C 194.708 150.236,194.854 150.000,194.709 150.000 C 194.565 150.000,193.026 151.395,191.289 153.100 M242.163 154.551 C 242.036 154.882,242.017 155.479,242.120 155.877 C 242.239 156.337,242.324 156.189,242.354 155.469 L 242.400 154.339 243.500 155.664 C 244.904 157.356,245.519 158.109,247.657 160.761 C 250.021 163.693,250.389 163.882,252.153 163.068 C 253.677 162.364,255.925 161.393,257.600 160.713 C 258.150 160.489,258.913 160.148,259.295 159.953 C 260.790 159.193,261.364 159.489,260.614 160.635 C 260.241 161.204,260.028 161.761,260.140 161.873 C 260.252 161.986,260.712 161.356,261.162 160.475 L 261.979 158.873 261.090 158.985 C 260.600 159.047,258.040 160.021,255.401 161.149 C 252.761 162.277,250.497 163.200,250.369 163.200 C 250.240 163.200,248.563 161.223,246.642 158.808 C 242.778 153.950,242.497 153.682,242.163 154.551 M184.706 160.500 C 184.161 161.215,183.140 162.880,182.437 164.200 C 181.032 166.836,181.272 166.538,184.092 162.146 C 186.093 159.030,186.351 158.338,184.706 160.500 M242.485 162.841 C 242.526 166.425,242.455 166.576,240.276 167.555 C 239.354 167.970,237.746 168.694,236.701 169.164 C 235.657 169.634,234.327 170.200,233.746 170.421 C 233.165 170.642,232.781 170.914,232.893 171.026 C 233.156 171.289,241.578 167.642,242.500 166.865 C 243.262 166.224,243.427 162.714,242.785 160.800 C 242.551 160.101,242.460 160.715,242.485 162.841 M258.506 164.282 C 257.281 166.835,257.696 166.973,258.980 164.440 C 259.548 163.318,259.875 162.404,259.707 162.410 C 259.538 162.415,258.998 163.258,258.506 164.282 M256.500 167.883 C 255.630 169.755,255.975 170.552,259.105 173.900 C 261.293 176.239,260.922 175.262,258.634 172.656 C 256.182 169.863,256.124 169.695,257.010 167.980 C 257.346 167.331,257.481 166.801,257.310 166.803 C 257.140 166.805,256.775 167.291,256.500 167.883 M232.600 171.810 C 233.965 172.440,235.165 172.587,234.580 172.053 C 234.371 171.862,233.570 171.605,232.800 171.481 L 231.400 171.256 232.600 171.810 M236.000 172.800 C 237.436 173.260,238.084 173.260,237.800 172.800 C 237.664 172.580,236.978 172.418,236.276 172.440 C 235.057 172.478,235.045 172.494,236.000 172.800 M178.267 173.067 C 178.120 173.213,178.011 173.708,178.025 174.167 C 178.049 174.933,178.082 174.923,178.434 174.042 C 178.826 173.063,178.744 172.589,178.267 173.067 M239.200 173.600 C 240.636 174.060,241.284 174.060,241.000 173.600 C 240.864 173.380,240.178 173.218,239.476 173.240 C 238.257 173.278,238.245 173.294,239.200 173.600 M242.271 174.278 C 243.647 174.546,244.008 175.302,244.362 178.659 L 244.694 181.800 244.747 178.789 C 244.809 175.259,244.190 173.968,242.477 174.054 C 241.578 174.100,241.544 174.137,242.271 174.278 M177.492 175.842 C 177.331 176.002,177.205 176.508,177.212 176.967 C 177.223 177.736,177.256 177.745,177.640 177.085 C 178.088 176.316,177.973 175.360,177.492 175.842 M250.620 176.938 C 250.059 177.674,249.600 178.374,249.600 178.495 C 249.600 178.615,248.772 180.185,247.761 181.984 C 246.749 183.783,246.010 185.344,246.119 185.452 C 246.228 185.561,246.576 185.144,246.893 184.525 C 247.210 183.906,247.875 182.690,248.371 181.823 C 248.867 180.956,249.725 179.381,250.278 178.323 C 251.064 176.821,251.499 176.400,252.266 176.400 C 252.818 176.400,253.139 176.225,253.000 176.000 C 252.535 175.247,251.641 175.600,250.620 176.938 M261.576 176.600 L 262.476 177.800 261.338 178.033 C 260.216 178.264,260.222 178.271,261.719 178.581 C 263.865 179.026,263.991 178.596,262.217 176.887 C 260.907 175.623,260.810 175.580,261.576 176.600 M254.600 176.800 C 255.711 177.278,256.495 177.278,256.200 176.800 C 256.064 176.580,255.468 176.413,254.876 176.428 C 253.915 176.453,253.886 176.493,254.600 176.800 M257.800 177.600 C 258.911 178.078,259.695 178.078,259.400 177.600 C 259.264 177.380,258.668 177.213,258.076 177.228 C 257.115 177.253,257.086 177.293,257.800 177.600 M176.667 179.467 C 176.520 179.613,176.422 180.648,176.450 181.767 L 176.500 183.800 176.818 181.602 C 177.147 179.334,177.124 179.010,176.667 179.467 M244.831 183.400 C 244.805 184.941,245.197 186.400,245.637 186.400 C 245.992 186.400,245.715 184.400,245.165 183.000 C 244.902 182.332,244.847 182.398,244.831 183.400 M176.142 189.000 C 176.141 190.980,176.208 191.840,176.292 190.912 C 176.376 189.984,176.377 188.364,176.295 187.312 C 176.212 186.260,176.143 187.020,176.142 189.000 M154.222 187.822 C 154.072 188.625,154.038 189.372,154.148 189.482 C 154.258 189.592,154.472 189.025,154.622 188.222 C 154.773 187.419,154.806 186.673,154.696 186.563 C 154.586 186.453,154.373 187.019,154.222 187.822 M153.482 191.950 C 153.327 192.692,153.220 193.773,153.244 194.350 C 153.273 195.042,153.410 194.787,153.647 193.600 C 153.845 192.610,153.952 191.530,153.885 191.200 C 153.819 190.870,153.638 191.208,153.482 191.950 M176.428 195.433 C 176.444 196.295,176.609 197.360,176.796 197.800 C 177.008 198.298,177.051 197.769,176.912 196.400 C 176.644 193.765,176.389 193.257,176.428 195.433 M152.931 200.600 C 152.933 202.140,153.005 202.721,153.092 201.891 C 153.179 201.061,153.177 199.801,153.089 199.091 C 153.000 198.381,152.929 199.060,152.931 200.600 M177.206 200.033 C 177.209 200.565,177.389 201.270,177.606 201.600 C 177.882 202.022,177.923 201.785,177.742 200.800 C 177.425 199.075,177.198 198.749,177.206 200.033 M178.012 203.200 C 178.012 203.530,178.187 204.070,178.400 204.400 C 178.745 204.933,178.788 204.933,178.788 204.400 C 178.788 204.070,178.613 203.530,178.400 203.200 C 178.055 202.667,178.012 202.667,178.012 203.200 M273.235 204.943 C 267.843 217.914,258.623 228.181,247.400 233.712 C 246.520 234.145,245.487 234.658,245.105 234.850 C 244.723 235.043,244.059 235.200,243.629 235.200 C 243.199 235.200,242.745 235.366,242.619 235.569 C 242.494 235.772,241.840 236.059,241.167 236.207 C 240.494 236.355,240.034 236.567,240.145 236.678 C 240.640 237.173,251.170 232.767,251.533 231.914 C 251.607 231.741,251.844 231.600,252.061 231.600 C 255.862 231.600,271.317 213.163,272.941 206.691 C 273.408 204.831,274.000 205.488,274.000 207.867 C 274.000 210.865,274.229 210.475,274.543 206.942 C 274.832 203.705,274.170 202.694,273.235 204.943 M153.270 207.200 C 153.257 207.750,153.395 208.920,153.577 209.800 L 153.908 211.400 153.907 210.000 C 153.905 208.235,153.309 205.612,153.270 207.200 M273.456 211.684 C 273.321 212.188,273.228 213.050,273.249 213.600 C 273.272 214.189,273.431 213.871,273.636 212.825 C 274.003 210.952,273.873 210.127,273.456 211.684 M181.800 212.400 C 182.141 213.060,182.511 213.600,182.621 213.600 C 182.731 213.600,182.541 213.060,182.200 212.400 C 181.859 211.740,181.489 211.200,181.379 211.200 C 181.269 211.200,181.459 211.740,181.800 212.400 M154.262 213.400 C 154.396 214.280,154.572 215.075,154.653 215.167 C 154.956 215.510,154.729 213.368,154.381 212.600 C 154.129 212.042,154.093 212.285,154.262 213.400 M272.649 215.415 C 272.512 215.773,272.415 216.366,272.434 216.733 C 272.453 217.100,272.627 216.869,272.821 216.220 C 273.198 214.958,273.065 214.333,272.649 215.415 M185.640 218.600 C 186.556 219.955,188.401 222.046,188.388 221.714 C 188.381 221.541,187.639 220.590,186.737 219.600 C 185.836 218.610,185.342 218.160,185.640 218.600 M190.000 223.800 C 190.746 224.570,191.447 225.200,191.557 225.200 C 191.667 225.200,191.146 224.570,190.400 223.800 C 189.654 223.030,188.953 222.400,188.843 222.400 C 188.733 222.400,189.254 223.030,190.000 223.800 M157.859 224.871 C 158.486 226.475,159.600 228.454,159.600 227.964 C 159.600 227.847,159.240 227.005,158.800 226.094 C 158.360 225.184,158.000 224.261,158.000 224.043 C 158.000 223.825,157.816 223.534,157.592 223.395 C 157.367 223.256,157.488 223.921,157.859 224.871 M268.678 226.605 C 268.312 227.372,268.095 228.000,268.196 228.000 C 268.470 228.000,269.684 225.551,269.501 225.368 C 269.414 225.281,269.044 225.838,268.678 226.605 M194.069 227.476 C 196.313 229.289,196.717 229.475,195.018 227.912 C 194.128 227.094,193.251 226.419,193.069 226.412 C 192.887 226.405,193.337 226.884,194.069 227.476 M160.400 230.000 C 160.849 230.880,161.306 231.600,161.416 231.600 C 161.526 231.600,161.249 230.880,160.800 230.000 C 160.351 229.120,159.894 228.400,159.784 228.400 C 159.674 228.400,159.951 229.120,160.400 230.000 M199.600 231.379 C 199.600 231.489,200.140 231.859,200.800 232.200 C 201.460 232.541,202.000 232.731,202.000 232.621 C 202.000 232.511,201.460 232.141,200.800 231.800 C 200.140 231.459,199.600 231.269,199.600 231.379 M202.400 232.996 C 202.400 233.270,204.849 234.484,205.032 234.301 C 205.119 234.214,204.562 233.844,203.795 233.478 C 203.028 233.112,202.400 232.895,202.400 232.996 M262.344 237.100 C 261.193 238.489,260.706 239.200,260.904 239.200 C 261.014 239.200,261.586 238.570,262.173 237.800 C 263.263 236.371,263.395 235.832,262.344 237.100 M238.000 237.200 C 237.176 237.464,237.141 237.526,237.800 237.554 C 238.240 237.573,238.870 237.413,239.200 237.200 C 239.901 236.747,239.414 236.747,238.000 237.200 M216.200 237.981 C 216.968 238.329,219.110 238.556,218.767 238.253 C 218.675 238.172,217.880 237.996,217.000 237.862 C 215.885 237.693,215.642 237.729,216.200 237.981 M234.000 238.000 L 233.000 238.320 234.000 238.354 C 234.550 238.373,235.270 238.213,235.600 238.000 C 236.364 237.506,235.542 237.506,234.000 238.000 M221.600 238.866 C 223.859 239.211,230.297 239.207,231.513 238.860 C 232.015 238.717,229.585 238.598,226.113 238.596 C 222.364 238.593,220.531 238.703,221.600 238.866 M256.902 243.168 C 255.087 245.021,253.657 246.590,253.723 246.656 C 253.788 246.722,255.353 245.256,257.200 243.400 C 259.047 241.544,260.477 239.974,260.379 239.912 C 260.281 239.851,258.716 241.316,256.902 243.168 M170.000 242.941 C 171.210 244.218,173.100 246.000,174.200 246.901 C 176.500 248.785,175.554 247.804,171.000 243.584 C 168.278 241.062,168.129 240.965,170.000 242.941 M250.993 248.434 C 248.521 250.462,247.815 251.198,249.400 250.094 C 250.928 249.030,253.465 246.838,253.193 246.816 C 253.079 246.807,252.089 247.536,250.993 248.434 M176.497 248.633 C 176.640 248.864,177.892 249.834,179.278 250.788 C 180.665 251.742,181.530 252.255,181.200 251.928 C 180.271 251.008,176.204 248.159,176.497 248.633 M246.700 251.429 C 246.095 251.757,245.600 252.110,245.600 252.213 C 245.600 252.599,246.232 252.357,247.200 251.600 C 248.389 250.670,248.211 250.609,246.700 251.429 M183.800 253.505 C 184.446 254.130,188.880 256.442,189.191 256.316 C 189.347 256.252,188.108 255.507,186.438 254.659 C 184.767 253.812,183.580 253.292,183.800 253.505 M242.600 254.000 C 241.940 254.437,241.580 254.792,241.800 254.788 C 242.201 254.782,244.376 253.223,244.000 253.212 C 243.890 253.208,243.260 253.563,242.600 254.000 M237.333 256.322 C 236.416 256.695,235.516 257.151,235.333 257.336 C 234.912 257.760,238.466 256.399,238.980 255.940 C 239.493 255.481,239.280 255.531,237.333 256.322 M193.800 258.151 C 195.199 258.756,197.200 259.287,197.200 259.054 C 197.200 258.867,193.411 257.592,192.925 257.616 C 192.746 257.624,193.140 257.865,193.800 258.151 M230.000 258.806 C 229.578 259.082,229.815 259.123,230.800 258.942 C 232.525 258.625,232.851 258.398,231.567 258.406 C 231.035 258.409,230.330 258.589,230.000 258.806 M198.800 259.600 C 200.168 260.038,201.219 260.038,200.200 259.600 C 199.760 259.411,199.040 259.262,198.600 259.268 C 197.957 259.277,197.996 259.343,198.800 259.600 M227.200 259.618 C 226.762 259.915,226.924 259.952,227.800 259.756 C 229.271 259.427,229.590 259.198,228.567 259.206 C 228.145 259.209,227.530 259.395,227.200 259.618 M202.200 260.400 C 202.860 260.568,203.850 260.705,204.400 260.705 C 205.292 260.705,205.270 260.672,204.200 260.400 C 203.540 260.232,202.550 260.095,202.000 260.095 C 201.108 260.095,201.130 260.128,202.200 260.400 M222.400 260.413 C 221.754 260.629,222.180 260.666,223.600 260.519 C 224.810 260.394,225.875 260.226,225.967 260.146 C 226.287 259.865,223.391 260.083,222.400 260.413 M209.010 261.252 C 210.336 261.406,213.486 261.395,216.010 261.227 C 220.500 260.930,220.448 260.924,213.600 260.947 C 208.788 260.964,207.353 261.059,209.010 261.252 M35.376 335.787 C 34.654 336.334,34.718 336.375,36.300 336.387 C 37.999 336.400,38.562 335.901,37.367 335.443 C 36.459 335.094,36.244 335.131,35.376 335.787 " stroke="none" fill="#7aac95" fill-rule="evenodd"></path><path id="path4" d="M399.375 301.426 C 399.216 302.489,399.278 303.618,399.524 304.126 C 399.866 304.836,399.951 304.492,399.973 302.300 C 400.004 299.169,399.766 298.820,399.375 301.426 M398.800 307.067 C 398.800 307.360,398.961 307.600,399.157 307.600 C 399.354 307.600,399.607 307.360,399.719 307.067 C 399.832 306.773,399.671 306.533,399.362 306.533 C 399.053 306.533,398.800 306.773,398.800 307.067 M367.600 335.200 C 367.600 335.420,368.140 335.600,368.800 335.600 C 369.460 335.600,370.000 335.420,370.000 335.200 C 370.000 334.980,369.460 334.800,368.800 334.800 C 368.140 334.800,367.600 334.980,367.600 335.200 M110.000 335.800 C 110.000 336.332,124.422 336.400,237.400 336.400 C 310.853 336.400,364.800 336.250,364.800 336.047 C 364.800 335.852,364.395 335.585,363.900 335.452 C 361.614 334.840,110.000 335.184,110.000 335.800 " stroke="none" fill="#414a2a" fill-rule="evenodd"></path></g></svg>